<?xml version="1.0" encoding="UTF-8" standalone="no"?>
<svg width="800" height="800" viewBox="0 0 800 800" xmlns="http://www.w3.org/2000/svg">
  <defs>
    <radialGradient id="goldGradient" cx="50%" cy="50%" r="50%" fx="50%" fy="50%">
      <stop offset="0%" style="stop-color:#f4d160;stop-opacity:1" />
      <stop offset="100%" style="stop-color:#d4af37;stop-opacity:1" />
    </radialGradient>
  </defs>
  
  <!-- First Tentacle -->
  <path d="M120,50 C150,100 100,180 130,250 C160,320 140,400 160,480 C180,560 150,650 180,720" 
        fill="none" stroke="#000" stroke-width="30" stroke-linecap="round" />
        
  <!-- Dots on First Tentacle -->
  <circle cx="120" cy="50" r="10" fill="url(#goldGradient)" />
  <circle cx="125" cy="100" r="10" fill="url(#goldGradient)" />
  <circle cx="115" cy="150" r="10" fill="url(#goldGradient)" />
  <circle cx="125" cy="200" r="10" fill="url(#goldGradient)" />
  <circle cx="140" cy="250" r="10" fill="url(#goldGradient)" />
  <circle cx="150" cy="300" r="10" fill="url(#goldGradient)" />
  <circle cx="145" cy="350" r="10" fill="url(#goldGradient)" />
  <circle cx="150" cy="400" r="10" fill="url(#goldGradient)" />
  <circle cx="155" cy="450" r="10" fill="url(#goldGradient)" />
  <circle cx="165" cy="500" r="10" fill="url(#goldGradient)" />
  <circle cx="170" cy="550" r="10" fill="url(#goldGradient)" />
  <circle cx="160" cy="600" r="10" fill="url(#goldGradient)" />
  <circle cx="165" cy="650" r="10" fill="url(#goldGradient)" />
  <circle cx="175" cy="700" r="10" fill="url(#goldGradient)" />
  
  <!-- Second Tentacle -->
  <path d="M300,30 C330,100 280,200 320,280 C360,360 330,450 360,530 C390,610 350,700 380,780" 
        fill="none" stroke="#000" stroke-width="35" stroke-linecap="round" />
        
  <!-- Dots on Second Tentacle -->
  <circle cx="300" cy="30" r="10" fill="url(#goldGradient)" />
  <circle cx="315" cy="80" r="10" fill="url(#goldGradient)" />
  <circle cx="305" cy="130" r="10" fill="url(#goldGradient)" />
  <circle cx="290" cy="180" r="10" fill="url(#goldGradient)" />
  <circle cx="300" cy="230" r="10" fill="url(#goldGradient)" />
  <circle cx="320" cy="280" r="10" fill="url(#goldGradient)" />
  <circle cx="335" cy="330" r="10" fill="url(#goldGradient)" />
  <circle cx="345" cy="380" r="10" fill="url(#goldGradient)" />
  <circle cx="340" cy="430" r="10" fill="url(#goldGradient)" />
  <circle cx="345" cy="480" r="10" fill="url(#goldGradient)" />
  <circle cx="360" cy="530" r="10" fill="url(#goldGradient)" />
  <circle cx="370" cy="580" r="10" fill="url(#goldGradient)" />
  <circle cx="365" cy="630" r="10" fill="url(#goldGradient)" />
  <circle cx="370" cy="680" r="10" fill="url(#goldGradient)" />
  <circle cx="380" cy="730" r="10" fill="url(#goldGradient)" />
  
  <!-- Third Tentacle -->
  <path d="M500,20 C530,100 480,180 520,260 C560,340 530,420 560,500 C590,580 550,660 580,740" 
        fill="none" stroke="#000" stroke-width="35" stroke-linecap="round" />
        
  <!-- Dots on Third Tentacle -->
  <circle cx="500" cy="20" r="10" fill="url(#goldGradient)" />
  <circle cx="515" cy="70" r="10" fill="url(#goldGradient)" />
  <circle cx="520" cy="120" r="10" fill="url(#goldGradient)" />
  <circle cx="500" cy="170" r="10" fill="url(#goldGradient)" />
  <circle cx="510" cy="220" r="10" fill="url(#goldGradient)" />
  <circle cx="520" cy="260" r="10" fill="url(#goldGradient)" />
  <circle cx="535" cy="310" r="10" fill="url(#goldGradient)" />
  <circle cx="545" cy="360" r="10" fill="url(#goldGradient)" />
  <circle cx="540" cy="410" r="10" fill="url(#goldGradient)" />
  <circle cx="550" cy="460" r="10" fill="url(#goldGradient)" />
  <circle cx="560" cy="500" r="10" fill="url(#goldGradient)" />
  <circle cx="570" cy="550" r="10" fill="url(#goldGradient)" />
  <circle cx="565" cy="600" r="10" fill="url(#goldGradient)" />
  <circle cx="560" cy="650" r="10" fill="url(#goldGradient)" />
  <circle cx="570" cy="700" r="10" fill="url(#goldGradient)" />
  
  <!-- Fourth Tentacle (thinner) -->
  <path d="M680,70 C700,130 670,190 690,250 C710,310 690,370 710,430 C730,490 710,550 730,610 C750,670 730,730 750,790" 
        fill="none" stroke="#000" stroke-width="25" stroke-linecap="round" />
        
  <!-- Dots on Fourth Tentacle -->
  <circle cx="680" cy="70" r="8" fill="url(#goldGradient)" />
  <circle cx="690" cy="130" r="8" fill="url(#goldGradient)" />
  <circle cx="680" cy="190" r="8" fill="url(#goldGradient)" />
  <circle cx="690" cy="250" r="8" fill="url(#goldGradient)" />
  <circle cx="700" cy="310" r="8" fill="url(#goldGradient)" />
  <circle cx="695" cy="370" r="8" fill="url(#goldGradient)" />
  <circle cx="705" cy="430" r="8" fill="url(#goldGradient)" />
  <circle cx="720" cy="490" r="8" fill="url(#goldGradient)" />
  <circle cx="715" cy="550" r="8" fill="url(#goldGradient)" />
  <circle cx="720" cy="610" r="8" fill="url(#goldGradient)" />
  <circle cx="735" cy="670" r="8" fill="url(#goldGradient)" />
  <circle cx="745" cy="730" r="8" fill="url(#goldGradient)" />
</svg>